<?xml version="1.0" standalone="no"?>
<!DOCTYPE svg PUBLIC "-//W3C//DTD SVG 20010904//EN"
 "http://www.w3.org/TR/2001/REC-SVG-20010904/DTD/svg10.dtd">
<svg version="1.0" xmlns="http://www.w3.org/2000/svg"
 width="132.000000pt" height="132.000000pt" viewBox="0 0 132.000000 132.000000"
 preserveAspectRatio="xMidYMid meet">
<metadata>
Created by potrace 1.11, written by Peter Selinger 2001-2013
</metadata>
<g transform="translate(0.000000,132.000000) scale(0.100000,-0.100000)"
fill="#000000" stroke="none">
<path d="M202 1239 c-46 -14 -109 -80 -122 -129 -7 -27 -10 -182 -8 -473 l3
-432 24 -38 c13 -21 42 -50 64 -65 l41 -27 456 0 456 0 41 27 c22 15 51 44 64
65 l24 38 0 456 0 455 -27 41 c-15 22 -44 51 -65 64 l-38 24 -440 2 c-260 1
-453 -2 -473 -8z m556 -371 l3 -107 112 -3 112 -3 0 -95 0 -95 -110 -5 -110
-5 -3 -104 c-1 -58 -8 -111 -14 -118 -8 -10 -35 -13 -102 -11 l-91 3 -3 112
c-3 131 8 121 -137 126 l-90 2 0 95 0 95 110 5 110 5 3 95 c1 52 4 101 7 108
3 9 30 12 102 10 l98 -3 3 -107z m205 95 c25 -29 30 -68 13 -101 -17 -34 -33
-42 -81 -42 -65 0 -99 88 -53 137 27 29 97 32 121 6z m-498 -498 c47 -46 24
-125 -42 -141 -53 -14 -113 46 -99 99 16 66 95 89 141 42z"/>
</g>
</svg>
